# Blender v2.79 (sub 0) OBJ File: 'Ky_Iso.blend'
# www.blender.org
mtllib Ky_Iso.mtl
o Cube
v 0.970995 0.350085 -1.190207
v 0.970995 0.350085 0.809793
v -1.029005 0.350085 0.809793
v -1.029004 0.350085 -1.190207
v 0.970996 2.350085 -1.190206
v -1.029005 2.350085 -1.190207
v 0.970995 2.350085 0.809794
v 0.970995 1.833269 0.809794
v 0.970995 1.843449 0.771885
v 0.970995 1.849933 0.673979
v 0.970995 1.837208 0.576670
v 0.970995 1.805764 0.483699
v 0.970995 1.756809 0.398638
v 0.970995 1.692225 0.324756
v 0.970995 1.614492 0.264893
v 0.970995 1.526599 0.221348
v 0.970995 1.431923 0.195795
v 0.970995 1.334102 0.189216
v 0.970995 1.236897 0.201865
v 0.970995 1.144041 0.233254
v 0.970995 1.059104 0.282178
v 0.970995 0.985350 0.346757
v 0.970995 0.925613 0.424508
v 0.970995 0.882188 0.512444
v 0.970995 0.856745 0.607186
v 0.970995 0.850261 0.705092
v 0.970995 0.862986 0.802400
v 0.970995 0.865486 0.809793
v 0.970995 0.350084 3.165724
v -1.029006 0.350084 3.165724
v -1.029005 0.861439 0.809793
v -1.029005 0.856157 0.800615
v -1.029005 0.824713 0.707644
v -1.029005 0.811988 0.610335
v -1.029005 0.818472 0.512429
v -1.029005 0.843915 0.417687
v -1.029005 0.887339 0.329751
v -1.029005 0.947076 0.252000
v -1.029005 1.020831 0.187421
v -1.029005 1.105768 0.138497
v -1.029005 1.198623 0.107108
v -1.029005 1.295829 0.094459
v -1.029005 1.393649 0.101038
v -1.029005 1.488325 0.126591
v -1.029005 1.576218 0.170136
v -1.029005 1.653951 0.229999
v -1.029005 1.718536 0.303881
v -1.029005 1.767491 0.388942
v -1.029005 1.798935 0.481914
v -1.029005 1.811659 0.579222
v -1.029005 1.805176 0.677128
v -1.029005 1.779732 0.771870
v -1.029005 1.761005 0.809793
v -1.029005 2.350085 0.809793
v 0.969947 0.894410 0.895322
v 0.968906 0.943345 0.980334
v 0.968001 1.007913 1.054173
v 0.967268 1.085630 1.114001
v 0.966735 1.173513 1.157521
v 0.966422 1.268183 1.183059
v 0.966342 1.366002 1.189634
v 0.966497 1.463211 1.176993
v 0.966881 1.556074 1.145622
v 0.967480 1.641022 1.096726
v 0.968270 1.714792 1.032185
v 0.969222 1.774547 0.954479
v 0.970299 1.817993 0.866594
v 0.938892 1.513108 3.430267
v -1.029005 1.736308 0.859806
v -1.029005 1.676571 0.937558
v -1.029005 1.602816 1.002136
v -1.029005 1.517879 1.051060
v -1.029005 1.425024 1.082449
v -1.029005 1.327818 1.095098
v -1.029005 1.229997 1.088519
v -1.029005 1.135321 1.062966
v -1.029005 1.047428 1.019421
v -1.029005 0.969696 0.959558
v -1.029005 0.905112 0.885676
v -1.049280 1.500358 3.360639
vn 0.0000 -1.0000 0.0000
vn 0.0000 0.0000 -1.0000
vn 1.0000 0.0000 0.0000
vn -1.0000 0.0000 -0.0000
vn 0.0000 1.0000 0.0000
vn 0.9999 0.0000 0.0122
vn -0.0334 -0.1675 0.9853
vn -0.0000 0.9487 0.3160
vn -1.0000 0.0006 -0.0090
vn 0.0168 0.7528 -0.6581
vn 0.0259 0.6100 -0.7920
vn 0.0070 0.8667 -0.4988
vn 0.0339 0.4437 -0.8955
vn -0.0029 0.9473 -0.3204
vn 0.0407 0.2604 -0.9647
vn -0.0128 0.9915 -0.1297
vn 0.0459 0.0670 -0.9967
vn -0.0222 0.9976 0.0661
vn 0.0494 -0.1289 -0.9904
vn -0.0308 0.9653 0.2592
vn 0.0509 -0.3198 -0.9461
vn -0.0381 0.8960 0.4425
vn 0.0505 -0.4985 -0.8654
vn -0.0440 0.7922 0.6087
vn 0.0482 -0.6580 -0.7515
vn -0.0482 0.6580 0.7515
vn 0.0440 -0.7922 -0.6087
vn -0.0505 0.4985 0.8654
vn 0.0381 -0.8960 -0.4425
vn -0.0509 0.3198 0.9461
vn 0.0308 -0.9653 -0.2592
vn -0.0494 0.1289 0.9904
vn 0.0222 -0.9976 -0.0661
vn -0.0459 -0.0670 0.9967
vn 0.0128 -0.9915 0.1296
vn -0.0407 -0.2604 0.9647
vn 0.0029 -0.9473 0.3204
vn -0.0339 -0.4437 0.8955
vn -0.0070 -0.8667 0.4988
vn -0.0259 -0.6100 0.7920
vn -0.0168 -0.7528 0.6581
vn 0.9996 0.0254 0.0095
vn 1.0000 0.0046 0.0000
vn 1.0000 0.0085 0.0012
vn 0.9999 0.0000 0.0123
vn 1.0000 0.0059 0.0003
vn 1.0000 0.0035 -0.0007
vn -0.0000 -0.2218 0.9751
vn -0.0168 0.9525 0.3040
vn -0.9998 -0.0164 -0.0070
vn -1.0000 -0.0022 -0.0087
vn -0.9999 -0.0051 -0.0088
vn -1.0000 -0.0030 -0.0088
vn -1.0000 -0.0012 -0.0089
vn 0.0128 -0.9915 0.1297
usemtl Material
s off
f 2//1 4//1 1//1
f 1//2 6//2 5//2
f 5//3 17//3 18//3
f 2//1 30//1 3//1
f 42//4 43//4 6//4
f 6//5 7//5 5//5
f 61//6 62//6 68//6
f 30//7 68//7 80//7
f 80//8 7//8 54//8
f 80//9 74//9 75//9
f 56//10 78//10 57//10
f 57//11 77//11 58//11
f 55//12 31//12 79//12
f 58//13 76//13 59//13
f 27//14 33//14 32//14
f 59//15 75//15 60//15
f 26//16 33//16 27//16
f 60//17 74//17 61//17
f 25//18 34//18 26//18
f 61//19 73//19 62//19
f 24//20 35//20 25//20
f 62//21 72//21 63//21
f 23//22 36//22 24//22
f 64//23 72//23 71//23
f 22//24 37//24 23//24
f 65//25 71//25 70//25
f 21//26 38//26 22//26
f 66//27 70//27 69//27
f 20//28 39//28 21//28
f 53//29 67//29 69//29
f 20//30 41//30 40//30
f 8//31 67//31 52//31
f 19//32 42//32 41//32
f 10//33 51//33 50//33
f 18//34 43//34 42//34
f 11//35 50//35 49//35
f 17//36 44//36 43//36
f 12//37 49//37 48//37
f 16//38 45//38 44//38
f 13//39 48//39 47//39
f 15//40 46//40 45//40
f 14//41 47//41 46//41
f 2//1 3//1 4//1
f 1//2 4//2 6//2
f 2//3 1//3 23//3
f 1//3 5//3 18//3
f 22//3 1//3 21//3
f 7//3 8//3 9//3
f 7//3 9//3 10//3
f 27//3 28//3 2//3
f 26//3 27//3 2//3
f 5//3 7//3 13//3
f 7//3 10//3 11//3
f 7//3 11//3 12//3
f 25//3 26//3 2//3
f 24//3 25//3 2//3
f 7//3 12//3 13//3
f 23//3 24//3 2//3
f 22//3 23//3 1//3
f 5//3 13//3 14//3
f 5//3 14//3 15//3
f 21//3 1//3 20//3
f 20//3 1//3 19//3
f 5//3 15//3 16//3
f 5//3 16//3 17//3
f 19//3 1//3 18//3
f 2//1 29//1 30//1
f 3//4 31//4 32//4
f 3//4 32//4 33//4
f 6//4 4//4 42//4
f 4//4 3//4 37//4
f 38//4 4//4 37//4
f 52//4 53//4 54//4
f 51//4 52//4 54//4
f 3//4 33//4 34//4
f 3//4 34//4 35//4
f 51//4 54//4 50//4
f 54//4 6//4 47//4
f 50//4 54//4 49//4
f 49//4 54//4 48//4
f 3//4 35//4 36//4
f 3//4 36//4 37//4
f 48//4 54//4 47//4
f 4//4 38//4 39//4
f 46//4 47//4 6//4
f 4//4 39//4 40//4
f 4//4 40//4 41//4
f 45//4 46//4 6//4
f 44//4 45//4 6//4
f 4//4 41//4 42//4
f 43//4 44//4 6//4
f 6//5 54//5 7//5
f 68//42 29//42 60//42
f 29//43 2//43 57//43
f 57//6 2//6 56//6
f 2//6 28//6 55//6
f 2//6 55//6 56//6
f 8//6 7//6 67//6
f 7//6 68//6 64//6
f 67//6 7//6 66//6
f 66//6 7//6 65//6
f 29//44 57//44 58//44
f 65//45 7//45 64//45
f 29//46 58//46 59//46
f 29//47 59//47 60//47
f 63//6 64//6 68//6
f 68//6 60//6 61//6
f 62//6 63//6 68//6
f 30//48 29//48 68//48
f 80//49 68//49 7//49
f 30//50 80//50 75//50
f 80//51 54//51 71//51
f 71//4 54//4 70//4
f 54//4 53//4 69//4
f 54//4 69//4 70//4
f 31//4 3//4 79//4
f 3//4 30//4 77//4
f 79//4 3//4 78//4
f 78//4 3//4 77//4
f 80//52 71//52 72//52
f 80//53 72//53 73//53
f 80//54 73//54 74//54
f 76//4 77//4 30//4
f 75//4 76//4 30//4
f 56//10 79//10 78//10
f 57//11 78//11 77//11
f 79//12 56//12 55//12
f 55//12 32//12 31//12
f 58//13 77//13 76//13
f 32//14 55//14 28//14
f 28//14 27//14 32//14
f 59//15 76//15 75//15
f 26//16 34//16 33//16
f 60//17 75//17 74//17
f 25//18 35//18 34//18
f 61//19 74//19 73//19
f 24//20 36//20 35//20
f 62//21 73//21 72//21
f 23//22 37//22 36//22
f 64//23 63//23 72//23
f 22//24 38//24 37//24
f 65//25 64//25 71//25
f 21//26 39//26 38//26
f 66//27 65//27 70//27
f 20//28 40//28 39//28
f 52//29 67//29 53//29
f 67//29 66//29 69//29
f 20//30 19//30 41//30
f 51//31 9//31 52//31
f 9//31 8//31 52//31
f 19//32 18//32 42//32
f 10//33 9//33 51//33
f 18//34 17//34 43//34
f 11//55 10//55 50//55
f 17//36 16//36 44//36
f 12//37 11//37 49//37
f 16//38 15//38 45//38
f 13//39 12//39 48//39
f 15//40 14//40 46//40
f 14//41 13//41 47//41
